<?xml version="1.0" encoding="UTF-8" standalone="no"?>
<!DOCTYPE svg PUBLIC "-//W3C//DTD SVG 1.1//EN" "http://www.w3.org/Graphics/SVG/1.1/DTD/svg11.dtd">
<svg xmlns="http://www.w3.org/2000/svg" version="1.1" viewBox="0.00 0.00 540.00 360.00">
<path fill="#7fbc03" d="
  M 0.00 0.00
  L 540.00 0.00
  L 540.00 360.00
  L 0.00 360.00
  L 0.00 0.00
  Z"
/>
<path fill="#fdfdfe" d="
  M 153.57 184.75
  Q 152.64 184.75 152.92 185.64
  L 170.54 239.74
  A 0.58 0.58 0.0 0 1 169.99 240.50
  L 146.39 240.50
  Q 145.84 240.50 145.67 239.97
  L 133.47 202.57
  A 0.50 0.50 0.0 0 0 132.67 202.34
  L 88.35 240.16
  Q 87.96 240.49 87.45 240.49
  L 49.40 240.83
  Q 48.52 240.84 49.01 240.11
  L 49.72 239.06
  A 3.49 3.14 74.4 0 0 50.13 238.23
  L 97.37 93.06
  Q 97.64 92.25 98.49 92.25
  L 121.98 92.25
  A 0.74 0.74 0.0 0 1 122.68 92.75
  L 144.13 158.57
  A 1.09 1.08 80.4 0 0 145.17 159.32
  L 191.60 159.06
  A 0.54 0.53 90.0 0 0 192.13 158.52
  L 192.29 93.14
  A 0.43 0.43 0.0 0 1 192.87 92.74
  L 217.47 102.14
  Q 218.00 102.34 218.00 102.90
  L 218.00 157.74
  Q 218.00 159.22 219.49 159.22
  Q 249.68 159.26 279.10 159.25
  C 279.91 159.25 280.18 159.09 280.96 158.88
  Q 281.53 158.74 281.92 159.17
  L 302.89 182.40
  Q 303.23 182.77 303.23 183.28
  L 303.33 215.16
  Q 303.33 215.75 303.91 215.75
  L 334.43 215.75
  A 1.36 1.35 -80.7 0 0 335.71 214.82
  L 375.45 92.74
  Q 375.60 92.25 376.11 92.25
  L 399.98 92.25
  A 0.73 0.72 -8.8 0 1 400.67 92.75
  L 422.05 158.46
  A 1.51 1.50 80.9 0 0 423.48 159.50
  L 467.50 159.50
  A 1.00 1.00 0.0 0 0 468.50 158.50
  L 468.50 104.77
  A 0.91 0.90 -14.7 0 1 468.97 103.98
  L 489.98 92.33
  Q 490.47 92.06 490.47 92.62
  Q 490.58 151.27 490.53 209.86
  Q 490.52 213.06 489.50 216.09
  Q 484.73 230.28 479.84 244.56
  A 0.32 0.32 0.0 0 1 479.23 244.56
  Q 474.41 230.09 469.39 215.56
  Q 468.44 212.82 468.47 209.89
  Q 468.61 197.44 468.45 184.98
  Q 468.45 184.50 467.97 184.50
  L 431.41 184.50
  A 0.66 0.65 -8.7 0 0 430.78 185.35
  L 448.52 239.76
  A 0.57 0.57 0.0 0 1 447.98 240.50
  L 424.39 240.50
  Q 423.84 240.50 423.67 239.97
  L 411.39 202.45
  Q 411.07 201.45 410.26 202.13
  L 366.65 238.86
  A 1.50 1.49 22.4 0 1 365.82 239.20
  C 361.04 239.56 353.94 238.76 351.77 240.30
  Q 351.49 240.50 351.14 240.50
  L 328.23 240.50
  Q 327.76 240.50 327.49 240.11
  Q 327.02 239.42 325.69 239.44
  Q 294.66 239.74 211.36 239.33
  Q 210.91 239.33 210.59 239.00
  L 192.62 220.04
  Q 192.25 219.65 192.25 219.11
  L 192.25 185.59
  A 0.84 0.84 0.0 0 0 191.41 184.75
  L 153.57 184.75
  Z"
/>
<path fill="#006853" d="
  M 51.86 236.76
  L 98.33 94.00
  Q 98.49 93.50 99.02 93.50
  L 120.25 93.50
  A 0.48 0.48 0.0 0 1 120.71 94.13
  Q 102.27 150.88 83.76 207.75
  C 83.29 209.22 82.91 210.42 81.70 211.50
  Q 67.14 224.44 52.27 237.03
  Q 51.58 237.61 51.86 236.76
  Z"
/>
<path fill="#006853" d="
  M 376.73 93.50
  L 398.37 93.50
  A 0.38 0.38 0.0 0 1 398.73 94.00
  L 360.98 210.01
  A 0.38 0.38 0.0 0 1 360.87 210.18
  L 330.82 236.01
  A 0.38 0.38 0.0 0 1 330.21 235.60
  L 376.36 93.76
  A 0.38 0.38 0.0 0 1 376.73 93.50
  Z"
/>
<path fill="#006853" d="
  M 469.75 211.67
  L 469.75 105.22
  A 0.48 0.48 0.0 0 1 470.00 104.80
  L 488.79 94.35
  A 0.48 0.48 0.0 0 1 489.50 94.77
  L 489.50 211.82
  A 0.48 0.48 0.0 0 1 489.02 212.30
  L 470.23 212.15
  A 0.48 0.48 0.0 0 1 469.75 211.67
  Z"
/>
<path fill="#006853" d="
  M 334.76 217.71
  L 328.19 237.88
  A 0.54 0.54 0.0 0 1 327.68 238.25
  L 211.78 238.25
  A 0.54 0.54 0.0 0 1 211.39 238.08
  L 193.70 219.45
  A 0.54 0.54 0.0 0 1 193.55 219.07
  L 193.55 95.03
  A 0.54 0.54 0.0 0 1 194.28 94.53
  L 216.40 102.99
  A 0.54 0.54 0.0 0 1 216.75 103.49
  L 216.75 216.46
  A 0.54 0.54 0.0 0 0 217.29 217.00
  L 334.25 217.00
  A 0.54 0.54 0.0 0 1 334.76 217.71
  Z"
/>
<path fill="#006853" d="
  M 122.34 95.47
  L 142.77 158.25
  A 0.39 0.39 0.0 0 1 142.65 158.67
  L 125.81 173.26
  A 0.39 0.39 0.0 0 1 125.19 173.08
  L 110.75 128.82
  A 0.39 0.39 0.0 0 1 110.75 128.58
  L 121.60 95.47
  A 0.39 0.39 0.0 0 1 122.34 95.47
  Z"
/>
<path fill="#006853" d="
  M 400.30 95.46
  L 446.94 238.74
  A 0.39 0.39 0.0 0 1 446.57 239.25
  L 424.95 239.25
  A 0.39 0.39 0.0 0 1 424.58 238.98
  L 388.73 128.77
  A 0.39 0.39 0.0 0 1 388.73 128.53
  L 399.56 95.46
  A 0.39 0.39 0.0 0 1 400.30 95.46
  Z"
/>
<path fill="#7fbc03" d="
  M 109.74 131.76
  A 0.37 0.37 0.0 0 1 110.44 131.76
  L 124.21 174.08
  A 0.73 0.72 -30.2 0 1 124.00 174.85
  L 85.23 208.52
  Q 84.55 209.11 84.83 208.25
  L 109.74 131.76
  Z"
/>
<path fill="#7fbc03" d="
  M 388.36 131.60
  L 402.27 174.32
  A 0.33 0.33 0.0 0 1 402.17 174.67
  L 363.59 207.81
  A 0.33 0.33 0.0 0 1 363.06 207.46
  L 387.74 131.60
  A 0.33 0.33 0.0 0 1 388.36 131.60
  Z"
/>
<path fill="#006853" d="
  M 152.44 183.90
  L 87.68 239.17
  A 0.32 0.32 0.0 0 1 87.47 239.25
  L 52.53 239.25
  A 0.32 0.32 0.0 0 1 52.32 238.69
  L 142.50 160.33
  A 0.32 0.32 0.0 0 1 142.71 160.25
  L 191.74 160.25
  A 0.32 0.32 0.0 0 1 192.06 160.57
  L 192.33 183.25
  A 0.32 0.32 0.0 0 1 192.01 183.57
  L 152.65 183.82
  A 0.32 0.32 0.0 0 0 152.44 183.90
  Z"
/>
<rect fill="#006853" x="218.00" y="160.25" width="63.00" height="23.38" rx="0.72"/>
<path fill="#006853" d="
  M 468.50 161.05
  L 468.50 182.94
  A 0.30 0.30 0.0 0 1 468.20 183.24
  L 430.37 183.26
  A 0.30 0.30 0.0 0 1 430.08 183.05
  L 422.97 161.14
  A 0.30 0.30 0.0 0 1 423.25 160.75
  L 468.20 160.75
  A 0.30 0.30 0.0 0 1 468.50 161.05
  Z"
/>
<path fill="#006853" d="
  M 301.93 215.75
  L 282.21 215.75
  A 0.30 0.30 0.0 0 1 281.91 215.45
  L 282.28 162.14
  A 0.30 0.30 0.0 0 1 282.81 161.94
  L 302.18 183.35
  A 0.30 0.30 0.0 0 1 302.26 183.56
  L 302.23 215.45
  A 0.30 0.30 0.0 0 1 301.93 215.75
  Z"
/>
<path fill="#006853" d="
  M 402.86 176.15
  L 410.60 200.00
  A 0.33 0.33 0.0 0 1 410.50 200.35
  L 365.63 238.17
  A 0.33 0.33 0.0 0 1 365.42 238.25
  L 331.28 238.25
  A 0.33 0.33 0.0 0 1 331.06 237.67
  L 402.33 176.01
  A 0.33 0.33 0.0 0 1 402.86 176.15
  Z"
/>
<rect fill="#7fbc03" x="218.00" y="184.75" width="62.76" height="31.00" rx="0.79"/>
<path fill="#006853" d="
  M 152.07 186.78
  L 168.90 238.53
  A 0.55 0.55 0.0 0 1 168.37 239.25
  L 147.12 239.25
  A 0.55 0.55 0.0 0 1 146.60 238.87
  L 134.35 201.36
  A 0.55 0.55 0.0 0 1 134.52 200.77
  L 151.19 186.53
  A 0.55 0.55 0.0 0 1 152.07 186.78
  Z"
/>
<path fill="#006853" d="
  M 479.21 240.70
  L 470.16 213.91
  A 0.35 0.35 0.0 0 1 470.49 213.45
  L 488.59 213.68
  A 0.35 0.35 0.0 0 1 488.91 214.15
  L 479.87 240.70
  A 0.35 0.35 0.0 0 1 479.21 240.70
  Z"
/>
<path fill="#000000" d="
  M 202.1285 267.1299
  A 12.35 11.46 94.0 0 1 191.5579 254.0106
  A 12.35 11.46 94.0 0 1 203.8515 242.4901
  A 12.35 11.46 94.0 0 1 214.4221 255.6094
  A 12.35 11.46 94.0 0 1 202.1285 267.1299
  Z"
/>
<path fill="#000000" d="
  M 338.43 256.10
  C 326.36 254.40 330.41 240.03 342.99 243.08
  Q 347.11 244.08 348.57 248.65
  A 0.53 0.52 -9.3 0 1 348.07 249.33
  L 344.56 249.39
  Q 344.15 249.39 343.98 249.02
  C 341.60 243.86 333.40 246.11 336.68 250.77
  A 1.39 1.35 -8.2 0 0 337.37 251.27
  C 342.05 252.69 350.82 254.21 348.90 261.38
  C 346.70 269.54 332.04 268.76 330.49 260.35
  Q 330.38 259.75 330.99 259.75
  L 334.20 259.75
  Q 334.64 259.75 334.85 260.14
  C 337.07 264.38 345.20 265.17 344.48 259.58
  Q 344.42 259.06 344.03 258.69
  Q 341.75 256.57 338.43 256.10
  Z"
/>
<path fill="#000000" d="
  M 247.60 254.50
  L 249.17 255.51
  A 1.86 1.83 5.5 0 1 249.87 256.34
  C 254.90 267.94 238.82 267.10 233.03 266.65
  Q 232.48 266.60 232.48 266.05
  L 232.36 243.69
  A 0.65 0.64 89.1 0 1 232.98 243.04
  C 237.29 242.87 246.59 241.72 249.17 246.14
  Q 251.57 250.25 247.55 253.86
  A 0.41 0.40 40.7 0 0 247.60 254.50
  Z"
/>
<path fill="#000000" d="
  M 273.33 263.00
  L 284.49 263.00
  A 0.33 0.33 0.0 0 1 284.82 263.37
  L 284.40 266.46
  A 0.33 0.33 0.0 0 1 284.07 266.75
  L 268.83 266.75
  A 0.33 0.33 0.0 0 1 268.50 266.42
  L 268.50 243.33
  A 0.33 0.33 0.0 0 1 268.83 243.00
  L 272.67 243.00
  A 0.33 0.33 0.0 0 1 273.00 243.33
  L 273.00 262.67
  A 0.33 0.33 0.0 0 0 273.33 263.00
  Z"
/>
<path fill="#000000" d="
  M 305.42 253.64
  A 0.26 0.25 -44.7 0 0 305.87 253.64
  L 311.25 243.47
  Q 311.50 243.00 312.03 243.00
  L 315.52 243.00
  Q 316.32 243.00 315.91 243.69
  L 308.00 257.26
  Q 307.75 257.70 307.75 258.20
  L 307.75 266.12
  Q 307.75 266.75 307.13 266.75
  L 303.79 266.75
  Q 303.21 266.75 303.23 266.17
  C 303.31 262.71 303.91 258.87 302.09 255.76
  Q 298.56 249.72 295.19 243.62
  Q 294.85 243.00 295.55 243.00
  L 299.36 243.00
  Q 299.98 243.00 300.26 243.56
  L 305.42 253.64
  Z"
/>
<path fill="#000000" d="
  M 374.51 253.63
  L 379.93 243.19
  A 0.35 0.35 0.0 0 1 380.24 243.00
  L 384.26 243.00
  A 0.35 0.35 0.0 0 1 384.56 243.53
  L 376.30 257.72
  A 0.35 0.35 0.0 0 0 376.25 257.89
  L 376.25 266.40
  A 0.35 0.35 0.0 0 1 375.90 266.75
  L 372.10 266.75
  A 0.35 0.35 0.0 0 1 371.75 266.40
  L 371.75 257.83
  A 0.35 0.35 0.0 0 0 371.70 257.66
  L 363.61 243.52
  A 0.35 0.35 0.0 0 1 363.91 243.00
  L 368.22 243.00
  A 0.35 0.35 0.0 0 1 368.53 243.19
  L 373.89 253.63
  A 0.35 0.35 0.0 0 0 374.51 253.63
  Z"
/>
<ellipse fill="#7fbc03" cx="0.00" cy="0.00" transform="translate(202.97,254.80) rotate(89.1)" rx="8.61" ry="6.75"/>
<path fill="#7fbc03" d="
  M 236.72 247.07
  A 0.59 0.59 0.0 0 1 237.31 246.47
  L 241.84 246.46
  A 3.66 2.85 -0.2 0 1 245.51 249.29
  L 245.51 249.63
  A 3.66 2.85 -0.2 0 1 241.86 252.50
  L 237.33 252.51
  A 0.59 0.59 0.0 0 1 236.74 251.93
  L 236.72 247.07
  Z"
/>
<path fill="#7fbc03" d="
  M 236.73 256.57
  A 0.56 0.56 0.0 0 1 237.29 256.01
  L 241.86 256.00
  A 4.15 3.29 -0.1 0 1 246.02 259.28
  L 246.02 259.88
  A 4.15 3.29 -0.1 0 1 241.88 263.18
  L 237.31 263.19
  A 0.56 0.56 0.0 0 1 236.75 262.63
  L 236.73 256.57
  Z"
/>
</svg>
