<?xml version="1.0" encoding="UTF-8"?><svg fill="white" id="Layer_1" xmlns="http://www.w3.org/2000/svg" viewBox="0 0 937.19 1098.94"><path d="m499.19,0c8.26,1.6,16.47,3.74,24.81,4.7,26.17,3.01,52.41,4.61,78.79,3.45,19.75-.87,36.37,6.16,51.44,19.14,24.86,21.4,50.75,41.62,75.99,62.58,29.58,24.57,60.78,47.28,87.49,75.17,7.83,8.17,15.2,16.81,22.35,25.58,10.06,12.34,14.09,27.38,17.99,42.42,7.21,27.79,16.18,54.95,30.21,80.14,10.98,19.71,16.03,40.76,15.62,63.22-.6,32.82-.47,65.68-2.03,98.45-1.63,34.1-4.03,68.21-7.67,102.14-4.04,37.7-11.69,74.67-30.6,108.35-10.27,18.31-23.03,34.6-38.23,49.01-5.92,5.61-11.7,11.38-17.81,16.79-6.91,6.12-11.94,13.47-14.9,22.11-4.08,11.88-13.22,18.82-23.3,24.99-21.9,13.4-45.75,22.35-70.2,29.44-25.69,7.45-51.52,14.92-77.76,19.9-36.59,6.94-73.49,12.69-110.49,16.91-40.6,4.64-81.42,5.01-122.23.48-21.89-2.43-42.29-8.93-61.59-19.11-17.61-9.29-36.72-13.67-55.9-17.84-19.86-4.32-39.85-8.55-57.99-17.96-26.23-13.6-50.12-30.44-67.51-55.03-8.91-12.61-12.13-27.2-14.56-42.09-2.04-12.49-4.41-24.92-6.4-37.41-.95-5.93-3.82-10.53-8.26-14.38-5.67-4.91-11.28-9.88-16.88-14.86-7.7-6.85-13.39-15.2-14.92-25.38-4.54-30.37-17.95-57.29-31.19-84.43-10.89-22.34-19.25-45.75-24.29-70.14-5.61-27.17-4.76-54.64-2.48-82.12,1.63-19.7,4.76-39.08,12.52-57.34,5.7-13.4,12.34-26.4,18.56-39.58.52.24,1.04.49,1.57.73-1.5,3.15-2.7,6.49-4.55,9.42-10.8,17-14.38,36.36-18.39,55.58-6.68,31.99-6.58,64.29-3.01,96.52,2.66,24,10.15,46.84,22.21,67.9,17.98,31.39,30.45,65.05,41.68,99.24,2.73,8.32,6.97,15.4,13.86,20.87,3.65,2.9,6.88,6.43,10.8,8.87,13.22,8.23,17.97,21.03,20.62,35.44,2.77,15.05,5.63,30.13,9.58,44.9,4.48,16.74,13.8,30.81,26.68,42.58,19.55,17.87,41.39,31.3,67.79,36.22,13.09,2.44,26.53,3.59,39.26,7.24,16.1,4.61,31.69,11.07,47.42,16.92,13.1,4.87,26.04,10.18,39.16,14.98,11.54,4.22,23.46,5.89,35.82,5,23.59-1.7,47.26-2.46,70.81-4.63,26.02-2.39,51.96-5.71,77.88-9.04,16-2.05,32-4.42,47.84-7.45,23.36-4.46,46.55-9.83,69.88-14.44,23.23-4.58,43.81-15.47,64.57-26.05,6.22-3.17,12.76-5.84,18.61-9.58,4.19-2.68,9.19-6.12,10.84-10.37,6.84-17.63,19.47-30.37,33.06-42.58,19.27-17.31,35.31-37.1,46.16-60.84,2.05-4.48,2.52-8.61.71-13.42-5.64-14.95-10.81-30.07-16.31-45.07-1.08-2.94-2.64-5.78-4.37-8.4-13.95-21.08-27.85-42.19-42.16-63.02-2.59-3.76-6.67-6.83-10.67-9.21-5.13-3.07-7.38-7.89-9.98-12.71-8.67-16.1-22.5-27.38-36.15-38.89-5.85-4.93-12.34-6.69-19.75-6.91-26.86-.81-53.37-4.6-79.56-10.43-14.66-3.26-29-4.74-44-1.6-8.42,1.76-17.63,1.79-26.19.54-21.9-3.21-43.58-7.88-65.44-11.37-17.42-2.78-34.98-4.66-52.47-6.96-11.87-1.56-23.8-2.78-35.59-4.8-17.4-2.98-31.05-12.8-43.8-24.5-13.37-12.26-26.96-24.35-41.29-35.44-7.91-6.12-17.45-10.2-26.4-14.92-15.89-8.39-31.98-16.41-47.82-24.89-6.67-3.57-13.57-5.02-21.05-5.27-10.96-.37-21.92-1.12-32.84-2.19-17.98-1.76-35.9-2.09-53.8.81-3.44.56-6.97.54-10.46.84-5.63.5-11.33.74-16.03,4.54-1.65,1.33-3.4,3.46-5.18.28-1.46-2.62-.8-5.15,1.9-6.31,3.95-1.7,8.05-3.58,12.24-4.08,9.41-1.14,18.9-1.7,28.38-2.11,24.82-1.06,49.63-1.1,74.39,1.56,8.71.94,16.81,3.3,24.77,7.03,15.65,7.33,31.53,14.18,47.4,21.02,13.1,5.64,24.87,12.89,35.4,22.85,15.22,14.4,31.58,27.61,47.58,41.18,11.32,9.6,25.04,12.52,39.39,13.87,35.81,3.37,71.62,6.87,107.4,10.58,15.73,1.63,31.38,4.08,47.1,5.81,5.6.62,11.33.48,16.97.2,23.92-1.19,47.58.62,71.08,5.25,24.16,4.76,48.37,9.24,72.58,13.77,10.37,1.94,17.05,8.92,22.5,17.02,17.76,26.37,35.27,52.9,52.71,79.48,8.58,13.07,17.79,25.86,24.87,39.72,6.69,13.1,10.96,27.44,16.35,41.2.94,2.4,2.17,4.67,3.92,8.39,1.47-2.95,2.65-4.52,3.05-6.27,4.3-18.81,9.17-37.52,12.56-56.5,8.1-45.43,15.18-91.07,16.55-137.29.86-28.97.89-57.97.55-86.95-.22-18.34-5.86-35.6-15.58-51.04-12.99-20.65-20.96-42.9-25.42-66.75-3.2-17.09-11.37-32.17-20.66-46.78-16.47-25.89-38.19-46.4-63.1-63.91-21.66-15.23-43.6-30.1-64.57-46.23-13.95-10.73-26.44-23.37-39.54-35.19-4.7-4.24-9.49-8.41-13.88-12.96-10.78-11.17-24.23-14.41-39.14-14.13-17.63.34-35.33,1.29-52.89.21-17.91-1.1-35.68-4.46-53.53-6.61-10.94-1.32-22.05-2.41-32.72,1.12-7.21,2.39-14.46,5.31-20.88,9.31-14.98,9.33-31.19,15.76-47.62,21.73-36.38,13.22-73.76,22.81-111.6,30.78-14.95,3.15-30.44,5.38-44.41,11.13-16.02,6.6-30.83,16.3-45.79,25.28-16.26,9.76-32.07,20.26-48.08,30.43-8,5.09-14.7,11.45-19.35,19.81-5.82,10.48-11.38,21.11-17.5,31.41-3.11,5.22-6.51,10.64-10.99,14.61-9.67,8.58-15.21,19.66-20.85,30.8-.96,1.9-1.84,3.85-2.76,5.78l-1.45-.35c.62-2.83.94-5.76,1.92-8.46,3.26-9.02,9.69-15.86,16.27-22.49,8.3-8.37,15.04-17.66,19.66-28.62,3.35-7.97,7.39-15.67,11.48-23.3,6.08-11.32,15.62-19.18,26.23-26.16,21.43-14.08,42.56-28.61,63.84-42.91,17.94-12.06,38.03-18.59,58.84-23.81,28.38-7.12,56.8-14.35,84.64-23.3,21.32-6.85,41.83-16.27,62.53-24.93,5.32-2.22,10.17-5.68,15-8.93,9.64-6.48,19.9-11.33,31.36-13.62C469.12,2.56,471.61,1.06,474.19,0c8.33,0,16.67,0,25,0Z"/><path d="m937.19,1040c-1.66,6.93-3.13,13.91-5.02,20.78-5.82,21.16-24.16,36.12-45.86,37.78-19.37,1.48-38.12-1.44-56.41-7.71-3.82-1.31-7.97-2.56-7.8-7.68.12-3.65,5.47-8.23,10.04-8.48,3.78-.2,7.67.04,11.4.72,14.21,2.59,28.16,6.2,42.83,6.55,20.41.49,29.74-9.8,35.96-26.24,1.29-3.41,2.22-6.99,3-10.55.39-1.75.07-3.65.07-5.48-.51-.11-1.01-.22-1.52-.33-1.93,2.79-3.81,5.63-5.81,8.37-7.57,10.32-19.39,14.54-29.69,10.31-6.38-2.62-10.87-7.54-14.26-13.46-7.54-13.17-9.93-27.46-8.67-42.36,1.21-14.28,5.77-27.66,12.48-40.26,1.48-2.77,2.68-7.71,7.29-5.54,4.33,2.04,2.67,6.42,1.3,9.75-4.39,10.64-6.13,21.71-6.09,33.15.03,11.71,3.05,22.37,11.01,31.26,9.25,10.33,22.06,8.42,27.66-4.16,1.34-3.02,3.07-6.27,3.07-9.41-.02-13.25-.35-26.52-1.15-39.74-.31-5.08-2.37-10.03-3.18-15.12-.24-1.5.7-4.27,1.77-4.67,2.4-.91,5.51-1.14,6.46,2.49,1.8,6.9,3.61,13.81,5.14,20.77,2.13,9.73,4.01,19.51,6,29.27v30Z"/><path d="m55.21,938.16c0-8.59-.1-17.18.04-25.77.08-4.49.46-8.99.93-13.46.38-3.56.94-6.83,5.94-7.02,5.02-.18,5.56,3.28,5.75,6.46.71,12.12,1.02,24.27,1.48,36.4.03.82,0,1.64,0,3.76,2.7-1.92,4.7-3.38,6.74-4.78,9.98-6.88,19.58-14.41,30.06-20.41,9.96-5.71,16.54-2.22,17.76,9.36,1.22,11.54,1.18,23.27.93,34.9-.58,26.82-1.57,53.63-2.49,80.45-.25,7.32-.67,14.65-1.31,21.94-.33,3.75-.62,8.1-5.68,8.74-3.6.45-5.69-3.34-6.2-9.24-3.29-38.26-2.81-76.57-1.71-114.88.13-4.6.54-9.19.87-14.62-1.98.92-3.28,1.23-4.2,2-9.45,7.91-18.79,15.94-28.25,23.83-5.53,4.61-7.58,10.62-8.07,17.57-.44,6.29-1.95,7.66-7.07,6.57-1.53-.32-3.94-2.33-3.89-3.46.73-14.29-9.57-21.6-18.53-29.63-6.19-5.55-12.85-10.58-19.34-15.79-.6-.48-1.47-.63-2.85-1.2-.14,2.51-.48,4.6-.35,6.66,2.64,40.97,2,81.92-.96,122.85-.26,3.54.67,8.63-5.66,8.63-4.69,0-6.17-1.63-6.58-8.39-.77-12.47-1.78-24.94-1.98-37.42-.47-28.82-.71-57.65-.59-86.48.03-6.39,1.43-12.9,3.12-19.11,1.58-5.81,6.14-8.08,11.25-5.02,10.94,6.55,21.33,14.01,31.89,21.19,2.55,1.73,4.85,3.82,7.27,5.74.55-.12,1.1-.25,1.65-.37Z"/><path d="m362.02,325c3.25,1.9,6.52,3.77,9.75,5.69,7.77,4.63,11.35,4,18.63-1.27,15.45-11.18,21.22-27.68,25.38-45.05.45-1.88-1.28-5.34-3.03-6.48-4.85-3.16-10.3-5.39-15.41-8.17-5.99-3.26-11.86-6.74-17.81-10.07-1.56-.87-3.23-1.54-4.85-2.31.65-.84,1.3-1.68,1.95-2.52,1.77.44,3.68.59,5.3,1.35,10.98,5.19,22.1,10.15,32.8,15.9,10.92,5.86,14.39,1.91,16.89-8.31,4.15-16.96,6.56-34.36,11.05-51.22,5.02-18.87,3.02-37.3-.47-55.9-.23-1.23-.78-2.4-1.44-4.37-3.39,2.24-6.3,4.08-9.13,6.03-11.77,8.15-23.63,16.16-35.22,24.54-11.87,8.58-21.1,19.73-29.64,31.52-11.61,16.02-18.61,34.02-20.57,53.47-1.1,10.93.95,22.18,1.6,33.29.09,1.58.3,3.15.45,4.72-.44.16-.88.32-1.33.48-.92-1.96-2.1-3.85-2.73-5.9-5.66-18.17-5.07-36.5-.7-54.76,1.11-4.65.25-8.01-3.52-10.34-11.09-6.87-23.44-10.66-35.64-14.74-3.11,7.84.13,16.52,7.52,19.19,4.01,1.45,8.71,1.02,13.1,1.37,1.87.15,5.23-.25,5.37.26.64,2.43,1.04,5.34.2,7.59-.46,1.23-3.55,2.11-5.43,2.06-13.44-.33-25.06-10.11-26.84-23.5-1.76-13.22-11.29-18.34-21.62-23.1-3.39-1.56-6.78-3.11-10.18-4.67.06-.68.12-1.36.19-2.04,1.97-.27,4.15-1.21,5.87-.68,6.33,1.97,12.75,3.94,18.67,6.86,4,1.97,7.58,1.47,11.54,1.07,12.1-1.2,23.96-.63,34.66,6.15,1.22.77,2.3,1.75,3.92,3-6.71,2.72-13.65-2.33-20.8,2.46,2.59,1.58,4.38,3.55,6.26,3.65,7.39.39,14.86.63,22.21-.01,2.51-.22,5.83-2.65,7.01-4.97,9.26-18.31,24.46-31.37,38.85-45.2,3.24-3.11,6.09-6.61,9.19-9.88,2.3-2.43,4.53-3.15,7.89-1.08,1.74,1.07,5.47.95,7.13-.25,6.19-4.47,12.06-9.43,17.72-14.57,4.12-3.74,3.21-8.79,2.28-13.61-.67-3.49-1.42-6.96-2.13-10.45.64-.32,1.27-.64,1.91-.96,1.13,1.62,2.77,3.09,3.3,4.89,4.39,14.89,7.32,30.02,8.11,45.6,1.58,31.47-2.25,62.16-12.18,92.07-.3.91-.45,1.87-.6,2.49,4.7-1.33,9.26-3.34,13.96-3.72,4.12-.33,8.42,1,12.58,1.91,4.52.98,8.94,2.38,13.43,3.46,3.54.86,7.23,1.21,10.68,2.32,5,1.61,9.22,1.23,12.34-3.38,2.79-4.11,5.63-8.21,8.16-12.48,5.17-8.72,10.49-17.38,15.06-26.41,2.78-5.48,3.52-11.42,1.5-17.84-3.47-11.04.45-17.03,11.97-20.14,1.76-.47,3.45-1.25,5.23-1.59,3.76-.72,7.88-2.45,11.26-1.55,5.3,1.41,13.51,11.45,14.68,16.83-3.41-1.74-6.27-2.8-8.69-4.49-8.35-5.86-18.47-6.86-25.49-.03-3.44,3.34-3.81,10.09-4.94,15.43-.44,2.08.88,4.51,1.35,6.79,1.84,9.05-.05,16.92-6.18,24.16-4.24,5.01-7.4,10.95-10.95,16.54-4.95,7.79-9.82,15.64-15.23,24.27-6.16-8.63-14.41-9.15-22.5-10.43-10.52-1.66-20.98-3.75-31.46-5.68-6.89-1.27-8.73.09-11.25,6.71-4.18,11.01-8.27,22.11-13.26,32.76-4.31,9.19-10.78,16.55-19.1,23.11-10.86,8.57-19.71,19.68-29.52,29.61-2.67,2.7-5.56,5.2-8.57,7.51-.81.62-3.22.65-3.51.15-.64-1.1-.86-2.91-.38-4.06.6-1.44,1.96-2.65,3.2-3.72,1.25-1.08,2.78-1.82,4.15-2.77,7.21-5,8.03-9.2,3.43-16.41-3.08-4.83-5.97-9.77-8.94-14.66.52-.51,1.05-1.01,1.57-1.52Z"/><path d="m467.18,543.88c-5.23,1.03-9.58,2.08-13.99,2.7-4.12.58-5.49,2.92-5.72,6.76-1.07,17.78-2.27,35.55-3.41,53.32-.5,7.82-3.25,10.85-11.73,11.38,5.33-21.77,10.18-43.35,9.22-66.75-2.79,1.41-5.2,2.13-6.95,3.62-7.46,6.35-15.03,12.63-21.99,19.5-11.14,10.99-21.66,22.6-32.76,33.63-12.61,12.53-18.59,28.01-21.61,45.09-1.01,5.71-2.44,11.41-4.36,16.88-3.17,9.03-4.9,18.13-5.22,27.76-.25,7.52-2.91,14.92-3.81,22.46-1.89,15.83-3.31,31.71-4.95,47.57-.15,1.48-.51,2.95-.88,4.39-.86,3.35-3.24,4.75-6.41,3.98-3.27-.79-4.38-3.5-3.74-6.6.84-4.07,2.23-8.02,3.06-12.09,1.76-8.59,3.42-17.2,4.93-25.84,1.88-10.79,3.66-21.6,5.32-32.43,1.01-6.55,1.68-13.15,2.56-19.72.88-6.53.8-13.42,2.98-19.5,6.46-18,13.1-36.09,24.26-51.85,5.06-7.15,11.61-13.23,17.38-19.88,3.6-4.15,7.1-8.38,10.5-12.69,10.02-12.71,22.56-22.07,37.58-28,3.49-1.38,4.43-3.39,3.96-6.88-2.61-19.31-5.44-38.59-7.52-57.96-1.15-10.72-1-21.58-1.35-32.37-.04-1.2.51-2.43.78-3.64.42-.02.83-.04,1.25-.06.41,2.32.92,4.62,1.22,6.95,3.52,27.9,6.97,55.81,10.51,83.71.78,6.13,1.38,6.32,7.38,4.72,3.37-.9,6.83-1.48,10.28-2.02,3.8-.6,5.25-2.52,5.15-6.49-.27-10.13.04-20.28-.22-30.42-.27-10.47-.97-20.93-1.42-31.4-.12-2.74-.02-5.49-.02-8.23.76-.1,1.51-.19,2.27-.29.88,4.17,2.2,8.31,2.58,12.53,1.66,18.7,3.14,37.42,4.47,56.15.24,3.39,1.32,4.35,4.73,4.65,11.42,1,22.98,1.63,34.13,4.04,16.3,3.53,32.36,2.17,48.07-1.43,24.47-5.6,48.59-12.76,72.9-19.06,15.33-3.98,30.95-4.56,46.61-2.56,7.33.93,10.84,6.95,15.12,12.37-.83.25-1.41.62-1.66.47-12.6-7.66-26.56-6.42-39.9-4.45-14.89,2.2-29.45,6.68-44.1,10.39-18.87,4.78-37.54,10.41-56.54,14.51-20.79,4.48-41.41,1.32-61.67-4.37-.48-.14-.96-.27-1.45-.4-16.23-4.38-20.64-2.09-22.94,14.89-1.44,10.63-.76,21.6-.44,32.41.32,11.05-1.73,21.56-6.09,31.57-1.03,2.37-3.88,3.95-5.9,5.89-.66-.28-1.33-.55-1.99-.83,0-2.31-.54-4.77.09-6.89,3.86-13.12,4.36-26.56,4.29-40.08-.06-12.07.85-23.98,6.34-35.07.48-.96.46-2.17.83-4.04Z"/><path d="m502.55,357.05c-.39,2.34-.2,5.01-1.28,6.96-3.28,5.95-7.06,11.62-10.65,17.4-1.84,2.96-3.83,5.85-5.5,8.9-.61,1.12-.5,2.64-.71,3.97.41.3.81.6,1.22.9,3.08-2.07,6.56-3.74,9.18-6.3,7.85-7.66,14.75-15.96,19.36-26.24,2.14-4.78,6.7-8.63,10.63-12.41,13.75-13.2,23.9-28.41,28.48-47.2,1.56-6.4,4.63-12.43,7.03-18.63,1.77-4.56,4.74-4.89,8.75-2.72,7.9,4.28,8.62,4.3,15.5-1.97,8.12-7.4,15.92-15.15,23.92-22.68,1.44-1.36,3.02-2.74,4.79-3.56,3.82-1.76,7.74-4.57,12.06-1.23,3.78,2.92,5.16,8.44,3.08,13.68-1.78,4.46-3.77,8.93-6.34,12.97-6.6,10.39-15.1,18.83-25.76,25.32-5.44,3.31-10.09,8.07-14.69,12.58-4.51,4.42-8.82,9.12-12.67,14.11-5.56,7.21-10.8,14.69-15.84,22.28-3.94,5.93-7.36,12.2-11.05,18.29-.77,1.27-1.42,3-2.58,3.54-2.41,1.12-5.27,2.43-7.65,2.01-1.69-.3-2.9-3.31-4.89-5.84,11.13-3.05,14.85-11.42,19.42-19.46,11.71-20.58,26.03-39.03,45.99-52.48,10.19-6.87,18.86-15.29,25.39-25.79.88-1.41,2.1-2.86,2.28-4.39.25-2.09.42-5.18-.78-6.19-1.27-1.07-4.81-1.08-6.23-.02-4.22,3.12-8.06,6.82-11.73,10.61-5.31,5.5-10.24,11.37-15.52,16.9-3.7,3.88-8.16,5.22-13.65,3.93-6.52-1.53-9.13.08-11.31,6.52-2.08,6.13-3.59,12.46-5.75,18.56-1.02,2.89-2.61,5.73-4.52,8.13-7.76,9.76-15.75,19.33-23.63,29-.73.9-1.58,1.85-1.88,2.92-1.33,4.73-2.22,9.65-9.15,8.72-.82-.11-2.42,2.2-2.92,3.65-2.48,7.12-6.8,12.88-12.31,17.93-1.4,1.29-2.28,3.15-3.61,5.07,1.78.85,3.09,1.48,4.39,2.11,5.4,2.63,6.22,5.37,3.76,10.72-1.94,4.22-3.4,8.67-5.18,12.97-1.42,3.42-3.22,6.49-8.93,6.45,1.67-2.47,2.88-4.07,3.89-5.79,2.01-3.41,4.56-6.7,5.6-10.4.62-2.23-.49-5.82-2.14-7.52-1.17-1.2-4.84-1-6.87-.17-8.4,3.46-12.04,10.39-13.04,19.13-.27,2.38-1.46,4.66-2.23,6.98-.69-.14-1.38-.29-2.06-.43.34-3.11.49-6.26,1.06-9.33.64-3.46-.43-5.17-3.96-6.06-10.14-2.55-20.3-5.09-30.24-8.29-4.67-1.5-6.59.07-7.6,4.07-.64,2.57-.7,5.28-1.38,7.83-.43,1.61-1.51,3.04-2.31,4.55-.62-1.71-1.95-3.51-1.74-5.11.96-7.42,2.36-14.79,3.58-22.18.4-2.4.73-4.81,1.22-8-4.97,1.05-6.48,4.44-7.6,7.71-2.27,6.61-4,13.4-6.26,20.01-.5,1.46-2.28,2.48-3.47,3.71-.75-1.63-2.48-3.54-2.09-4.83,2.76-9.21,5.72-18.38,9.09-27.38,1.8-4.8,6.24-6.99,11.1-7.41,7.55-.64,12.43-5.09,16.69-10.65,12.72-16.62,22.06-35.21,31.22-53.88,2.98-6.08,1.99-6.87-4.48-9.73-11.93-5.29-25.22-7.98-35.01-17.56-.68-.67-1.32-1.39-3.15-3.33,3.15.32,5.05.12,6.62.74,9.12,3.56,18.28,7.09,27.22,11.08,7.66,3.42,9.24,3.42,15.29-2.54.47-.47.86-1.14,1.43-1.38,2.21-.94,4.47-1.74,6.71-2.59.53,2.3,2.11,5.02,1.4,6.83-2.82,7.19-6.35,14.1-9.62,21.11-.49,1.04-1.55,2.12-1.44,3.08,1.27,11.9-5.7,20.48-11.7,29.44-4.53,6.77-8.88,13.68-13.75,20.2-6.07,8.13-12.51,15.98-18.93,23.83-3.9,4.77-3.61,6,2.28,7.39,8.1,1.91,16.17,3.92,24.28,5.77,5.32,1.22,9.51-1.35,9.34-6.55-.29-9.08,4.16-15.75,9.25-22.51,3.97-5.28,7.19-11.11,10.78-16.68.84-1.3,1.83-2.5,2.76-3.74.59.2,1.18.39,1.77.59Z"/><path d="m827.07,1034.57c-1.17,4.08-2.54,8.12-3.47,12.26-3.8,16.98-31.09,31.73-49.51,14.69-16.54-15.3-21-34.48-17.57-56.02,1.87-11.75,5.1-22.99,12.58-32.71,10.52-13.69,25.44-15.35,38.56-4.11,10.96,9.39,17.03,22.03,22.95,34.67,5.23,11.16,9.34,22.82,9.9,35.3.29,6.45-.04,12.94-.47,19.39-.1,1.42-1.82,2.73-2.79,4.09-1.44-1.09-3.77-1.93-4.18-3.32-1.57-5.4-2.57-10.97-3.71-16.49-.54-2.59-.93-5.2-1.39-7.8-.3.02-.6.05-.9.07Zm-58.75-15.64c1.07,6.01,1.81,12.11,3.29,18.02,1.45,5.81,4.75,10.61,10.26,13.5,11.74,6.16,28.55-1.38,32.9-15.2,5.86-18.59.95-35.28-11-49.85-8.24-10.04-20.06-8.67-26.87,2.4-5.83,9.47-8.06,19.93-8.59,31.12Z"/><path d="m353.8,1001.97c-1.82,12.83-3.63,25.67-5.46,38.5-.45,3.13-1.14,6.23-1.42,9.38-.67,7.39.77,13.75,7.87,18,5.07,3.04,8.09,14.77,5.43,20.08-.65,1.29-2.79,2.63-4.15,2.55-1.25-.08-2.94-1.84-3.46-3.23-1.21-3.23-1.04-7.25-2.9-9.92-2.49-3.56-6.12-6.51-9.73-9.05-4.99-3.52-7.45-7.26-5.87-13.82,1.94-8.06,2.76-16.4,3.95-24.64.33-2.29.51-4.66.33-6.96-1.04-12.84-6.93-18.17-19.58-16.48-6.81.91-13.5,3.28-20.04,5.6-5.81,2.06-8.58,6.98-8.33,12.96.3,6.95,1.26,13.89,2.1,20.81.46,3.79,1.34,7.54,1.86,11.33.53,3.82-1.52,6.06-5.05,6.78-3.97.8-7.11-.54-7.78-4.88-1.18-7.73-2.17-15.49-3.05-23.27-2.24-19.8-2.12-39.59,1.39-59.22,1.03-5.78,3.27-11.45,5.68-16.84.75-1.67,3.89-2.27,5.94-3.36,1.26,2.53,3.62,5.08,3.55,7.57-.14,4.92-1.63,9.81-2.53,14.71-.24,1.31-.47,2.63-.58,3.95-.7,8.46,3.19,12.64,11.7,11.93,7.62-.64,15.22-1.63,22.77-2.88,12.59-2.08,12.88-2.75,10.8-15.54-.72-4.42-1.47-8.92-1.35-13.36.06-2.18,2.34-6.24,3.14-6.12,2.78.4,6.71,1.6,7.72,3.69,2.33,4.86,3.48,10.35,4.59,15.7.87,4.22,1.14,8.59,1.36,12.9.22,4.32.05,8.66.05,12.99.36.04.72.09,1.08.13Z"/><path d="m236.28,1034c-.79,2.26-1.67,3.99-1.98,5.81-2.77,16.13-12.19,25.91-28.21,28.82-10.15,1.85-18.83-2.2-25.66-9.37-9.72-10.21-15.09-22.39-15.34-36.84-.29-16.43,1.67-32.19,10.51-46.49,7.15-11.57,16.59-16.34,28.83-14,8.01,1.53,13.52,7.12,18.21,13.18,15.43,19.89,24.9,42.33,27.16,67.52.44,4.91-.23,9.98-.88,14.91-.2,1.54-2.05,2.86-3.14,4.28-1.52-1.24-4-2.24-4.39-3.78-1.95-7.68-3.36-15.49-5.12-24.05Zm-59.47-16.29l1.07.38c.46,5.13.6,10.31,1.46,15.37,1.8,10.49,8.66,17.62,17.8,19.12,8.72,1.43,20.02-4.58,24.58-12.95,10.14-18.6.88-45.74-11.64-57.38-5.08-4.72-13.15-5.03-18.39-.6-3.33,2.82-6.83,6.39-8.22,10.33-2.93,8.33-4.53,17.13-6.67,25.74Z"/><path d="m320.02,427.84c13.43,11.9,17.55,27.39,18.28,44.29.75,17.3,1.09,34.65,2.93,51.84,1.43,13.36,5.03,26.48,7.41,39.75.76,4.22.51,8.61,1.05,12.87,1.23,9.55,2.47,19.11,4.11,28.6.7,4.04.11,7.39-2.99,9.91-6.46,5.26-9.35,12.28-10.98,20.16-4.22,20.37-8.94,40.64-12.8,61.07-2.63,13.89-3.64,28.08-6.34,41.95-1.89,9.7-2.95,19.04.67,28.44,1.72,4.46.03,6.99-4.37,8.16-.95.25-1.84.76-2.75,1.18-7.71,3.57-11.52,1.25-10.3-7.02.94-6.36,3.28-12.5,4.9-18.77,2.36-9.17,5.12-18.28,6.71-27.58.8-4.69-.75-9.75-.99-14.65-.11-2.22-.31-4.88.72-6.64,5.87-9.98,6.9-20.86,7.89-32.1.77-8.81,3.23-17.7,6.33-26.03,13.36-35.86,14.56-72.35,7.82-109.66-2.42-13.38-2.93-27.11-4.01-40.71-.79-9.96-.42-20.05-1.83-29.9-1.14-7.96-3.98-15.71-6.43-23.44-1.28-4.03-3.33-7.82-5.03-11.72Z"/><path d="m482.56,1023.82c.14-21.45,3.55-40.39,9.02-58.99.6-2.06,1.12-4.57,2.57-5.83,1.73-1.51,4.43-1.9,6.71-2.77.76,2.03,2.4,4.19,2.12,6.06-1.07,7.05-2.75,14.01-4.22,21-1.89,9.04-1.36,10.2,6.57,14.86,8.02,4.72,16.07,9.39,23.96,14.31,2.65,1.65,4.9,3.97,7.25,6.07,16.15,14.51,8.59,41.23-10.37,48.34-4.47,1.68-9.22,2.91-13.95,3.58-12.34,1.76-21.4-4.71-25.1-17.68-1.46-5.1-2.85-10.27-3.65-15.5-.77-5.08-.73-10.28-.92-13.44Zm14.73-18.07c-.7.3-1.39.6-2.09.9.79,9.02,1.16,18.11,2.55,27.04.72,4.64,2.74,9.27,5.05,13.42,4.64,8.28,13.97,10.25,21.36,5.03,8.2-5.78,10.61-16.59,4.74-23.54-8.64-10.23-20.71-15.76-31.61-22.85Z"/><path d="m388.51,1010.92c.81-8.37,1.44-18.5,2.84-28.53,3.12-22.32,24.66-34.31,45.58-25.88,12.57,5.07,21.48,13,23.56,27.12.76,5.18-.72,9.78-3.94,10.79-3.98,1.26-8.09-1.42-10.21-6.66-1.12-2.78-2.15-5.59-3.31-8.35-5.13-12.14-17.55-15.7-28.37-7.94-9.13,6.55-12.06,15.94-11.17,26.74.36,4.35,3.26,5.99,7.32,5.63,2.98-.26,5.92-1.08,8.89-1.23,2.83-.15,6.52-1.2,7.49,2.88.91,3.83.86,8.28-3.3,10.05-3.68,1.57-7.98,2.18-12.03,2.29-9.38.27-9.07.05-9.3,9.66-.29,12.13-1.11,24.25-1.79,36.37-.15,2.65-1.01,4.89-4.35,5.02-3.5.14-4.23-2.21-4.41-4.82-1.18-17.1-2.27-34.21-3.51-53.14Z"/><path d="m682.25,969.16c-7.32.66-12.55,4.09-17.63,7.88-3.86,2.88-7.58,5.98-11.64,8.52-1.35.85-4.23,1.01-5.26.13-1.07-.91-1.59-3.92-.89-5.21,8.74-16.02,26.32-32.98,49.56-25.96,12.48,3.76,23.03,11.06,33.29,18.77,1.22.92,2.21,2.6,2.55,4.11.36,1.59.43,4.22-.48,4.89-1.26.92-3.88,1.13-5.34.43-6.58-3.16-12.89-6.89-19.44-10.11-2.79-1.37-5.94-2.03-8.95-2.94-4-1.21-5.18.29-5.13,4.42.27,21.98.35,43.97.32,65.95-.01,8.32-.4,16.65-.81,24.97-.09,1.91-.52,4.11-1.61,5.56-.76,1.01-3.09,1.56-4.41,1.2-1.21-.33-2.69-2.07-2.85-3.35-.54-4.11-.46-8.3-.74-12.46-1.79-26.93-3.77-53.85-.23-80.81.23-1.75-.16-3.58-.3-5.97Z"/><path d="m322.22,419.31c-12.66-9.06-25.22-18.26-38-27.14-12.01-8.34-23.92-16.91-36.46-24.39-33.42-19.93-69.52-28.9-108.48-24.42-7.75.89-15.39,2.79-23.13,3.85-1.77.24-3.76-1.11-5.65-1.73,1.26-1.54,2.22-3.77,3.85-4.47,4.08-1.77,8.39-3.66,12.74-4.08,22.37-2.17,44.84-4.2,67.15.27,10.91,2.18,21.75,4.97,32.34,8.35,4.57,1.46,8.65,4.83,12.57,7.84,7.35,5.64,14.88,10.52,24.38,11.87,2.81.4,5.46,2.3,8.05,3.76,9.56,5.39,19.02,10.96,28.61,16.3,6.19,3.45,11.08,7.42,12.26,15.22.49,3.22,3.88,5.95,5.75,9.03,1.85,3.03,3.44,6.22,5.15,9.33-.37.14-.75.28-1.12.42Z"/><path d="m585,1014.27c-.41-14.47,7.29-25.36,15.97-35.61,6.02-7.11,12.49-14.13,21.6-17.24,3.17-1.08,9.02-1.34,10.25.42,2.56,3.65-1.97,6.31-4.63,8.56-13.43,11.37-23.26,25.11-27.87,42.22-2.39,8.87-1.18,17.51,4.92,24.49,6.98,7.99,14.68,15.34,22.18,22.86,2.83,2.84,6.97,5.58,3.93,9.93-2.69,3.85-7.55,2.9-10.9.81-5.16-3.22-10.43-6.78-14.41-11.29-11.37-12.9-20.56-27.07-21.04-45.14Z"/><path d="m769.04,528.51c3.48,10.7,6.24,21.53,5.18,32.73-1.03,10.91-2.62,21.8-4.58,32.58-1.97,10.84-8.52,19.34-15.85,27.17-3.42,3.66-5,7.71-4.65,12.68.2,2.82-.01,5.66.07,8.49.36,11.77-4.51,21.15-13.94,27.74-6.37,4.45-8.9,10.53-10.09,17.57-2.82,16.71-5.55,33.43-8.26,50.16-2.18,13.43-4.32,26.86-6.35,40.31-.39,2.62.11,6.27-3.67,5.59-2.63-.47-5.76-2.62-7.09-4.92-2.09-3.6.81-6.24,3.43-8.89,2.02-2.04,3.92-4.91,4.39-7.67,2.27-13.25,3.77-26.63,6.08-39.87,2.11-12.1,4.57-24.17,7.57-36.08,1.48-5.89,4.52-11.39,6.81-17.09.62-1.54,1.45-3.13,1.52-4.72.22-5.1,2.81-8.62,6.64-11.68,6.7-5.36,7.25-13.29,6.16-20.54-1.03-6.85,1.25-11.97,4.22-17.38,5.36-9.74,11.02-19.33,15.95-29.29,6.31-12.76,6.25-26.74,6.46-40.57.09-5.44.01-10.88.01-16.33Z"/><path d="m553.17,1018.37c-1.37-18.57-2.76-37.14-4.06-55.71-.17-2.48-1.25-5.47,2.79-6.33,3.87-.82,5.8,1.29,6.58,4.44,2.23,9.03,4.56,18.06,6.16,27.21,4.24,24.13,2.31,48.05-3.5,71.73-.35,1.44-.56,3.26-1.53,4.13-1.49,1.33-3.57,2.59-5.43,2.66-.93.03-2.81-2.68-2.8-4.14.12-12.31.59-24.62.93-36.93.06-2.33,0-4.66,0-6.99.29-.02.57-.04.86-.06Z"/><path d="m104.98,400.07c.48-2.55,1.31-5.1,1.37-7.66.55-22.09-3.03-43.27-12.37-63.58-6-13.06-6.2-27.45-5.92-41.64.03-1.37,1.87-2.71,2.88-4.07.64,1.47,2.01,3.04,1.81,4.38-2.51,17.21,2.05,33.15,7.4,49.28,6.34,19.12,10.47,38.87,11.34,59.12.13,3.11-.25,6.36-1.01,9.38-1.78,7.04-9.77,11.39-16.48,8.88-1.37-.51-2.93-2.87-2.9-4.36.08-4.46.64-8.95,1.49-13.34,1.48-7.66-.04-14.51-4.5-20.83-3.74-5.3-7.59-10.53-11.05-16.01-4.7-7.43-5.05-15.97-3.97-24.19,1.71-13,1.08-25.47-3.89-37.71-1.62-3.98-2.41-8.3-3.55-12.47-.21-.77-.25-1.58.44-3.02,1.08,1.18,2.45,2.19,3.2,3.55,5.14,9.2,7.18,19.3,7.91,29.64.72,10.29,1.02,20.62,1.29,30.94.15,5.74,1.86,10.75,5.49,15.17,8.46,10.31,14.44,21.85,17.34,34.94.29,1.3,1.28,2.45,1.95,3.66.58-.03,1.16-.05,1.74-.08Z"/><path d="m718.45,636.91c.49.76,1.28,1.46,1.42,2.27,1.42,8.18,3.54,16.36,3.76,24.59.13,4.8-2.44,9.87-4.5,14.5-4.47,10-10.41,19.46-13.87,29.78-3.94,11.74-6.14,24.1-8.5,36.3-1.66,8.59-3.3,17.19-1.47,26.22.7,3.47-1.66,7.67-3.05,11.38-.36.97-2.34,1.88-3.58,1.88-6.69,0-10.87-7.18-6.94-12.44,8.61-11.51,11.16-24.67,11.51-38.52.53-21.01,6.17-40.81,15.45-59.38,5.8-11.6,9.94-23.16,8.47-36.35.44-.07.87-.15,1.31-.22Z"/><path d="m509.36,322.05c-2.17,3.07-3.37,5.43-5.17,7.18-5.38,5.22-4.24,11.58-3.2,17.79.18,1.05,2.94,2.45,4.44,2.37,8.75-.46,14.63-6.02,18.25-13.08,7.43-14.49,14.24-29.32,20.61-44.31,1.87-4.39,1.43-9.77,1.97-14.71,1.37-12.54,1.36-25.43,4.48-37.52,2.42-9.37,8.63-17.79,13.37-26.52.86-1.58,2.75-2.6,4.94-4.58.95,5.92-.6,10.16-3.01,14.08-2.79,4.53-6.23,8.68-8.79,13.32-5.41,9.79-6.68,20.24-5.19,31.41,1.76,13.24-.1,26.13-6.25,38.28-4.26,8.42-7.81,17.19-12.2,25.53-5.16,9.79-14.04,16.33-22.01,23.6-2.26,2.06-4.87,2.32-7.13,0-3.45-3.54-6.8-7.18-10.07-10.89-5.01-5.68-4.35-13.05,1.79-17.45,3.37-2.41,6.7-5.5,13.17-4.52Z"/><path d="m235.92,951.13c-6.36,3.45-11.32,1.92-16.33-.17-5.51-2.3-11.07-4.49-16.66-6.58-4.42-1.65-8.45-.77-12.1,2.28-1.78,1.49-3.68,2.89-5.71,4-4.51,2.47-8.64,1.91-10.77-1.22-2.08-3.06-1.44-8.72,1.94-11.38,8.92-7,19.07-11.15,30.2-7.04,8.01,2.95,15.47,7.61,22.8,12.12,2.68,1.65,4.27,5.05,6.63,7.99Z"/><path d="m788.17,929.6c2.66.97,8.19,2.34,13.08,4.91,6.25,3.3,12.11,7.4,17.87,11.54,1.22.88,2.22,3.92,1.61,5.01-.73,1.3-3.46,2.45-5.03,2.15-4.36-.83-8.6-2.35-12.83-3.8-2.67-.91-5.2-2.21-7.81-3.3-7.26-3.04-14.17-3.46-20.3,2.61-.81.8-1.92,1.32-2.94,1.88-4.67,2.51-8.46,2.12-10.76-1.07-2.3-3.2-1.53-8.59,2.17-11.68,6.32-5.28,13.68-8.08,24.94-8.25Z"/><path d="m730.46,636.81c-3.01-2.61-6.59-4.79-8.91-7.9-6.57-8.81-13.14-17.49-21.79-24.5-5.68-4.6-6.96-11.82-7.51-18.52-1.1-13.58-1.35-27.23-1.65-40.86-.04-1.58,1.75-3.2,2.7-4.81,1.23,1.52,3.41,2.96,3.54,4.56.74,9.44,1.38,18.92,1.33,28.38-.05,10.68,3.5,19.37,10.3,27.73,8.74,10.76,16.05,22.68,23.98,34.1-.66.61-1.32,1.21-1.99,1.82Z"/><path d="m433.21,604.11c-5.04,5.6-9.13,12.95-18.55,11.37-7.32-1.23-11.81-6.32-15.82-12.94h34.03l.35,1.58Z"/><path d="m414.9,630.67h35.19c.12.68.24,1.37.36,2.05-5.02,3.62-10.14,7.45-16.82,7.04-7.38-.45-14.1-2.87-18.73-9.09Z"/></svg>