<?xml version="1.0" encoding="utf-8" ?>	<!-- Generator: Assembly 2.4 - http://assemblyapp.co -->	<svg version="1.1" xmlns="http://www.w3.org/2000/svg" xmlns:xlink="http://www.w3.org/1999/xlink" width="900.00" height="600.00" viewBox="0 0 900.0 600.0">		<rect x="0" y="0" width="900.00" height="600.00" fill="#ffffff" />		<g id="document" transform="scale(3.0029921885343573 3.0029921885343573) translate(149.77432147643904 100.0)">			<path d="M189.339,189.339 L189.339,-189.339 L-189.339,-189.339 L-189.339,189.339 L189.339,189.339 Z " fill="#008c9f" fill-opacity="1.00" />			<path d="M-23.0936,-39.9424 L-29.4561,-50.9001 C-37.9394,-45.9515 -45.1267,-38.9998 -50.1932,-30.7521 L-39.1177,-24.3896 C-35.1116,-30.87 -29.6917,-36.1721 -23.0936,-39.9424 Z M-39.8246,-23.447 L-50.7823,-29.8096 C-55.6131,-21.5618 -58.5587,-12.0181 -58.7943,-1.76736 L-46.0693,-1.76736 C-45.8337,-9.66159 -43.595,-17.0845 -39.8246,-23.447 Z M-0.589122,-46.1871 L-0.589122,-58.9122 C-10.722,-58.7943 -20.148,-56.2022 -28.3957,-51.607 L-22.0331,-40.6494 C-15.6706,-44.0663 -8.36553,-46.0693 -0.589122,-46.1871 Z M46.1871,-1.76736 L58.9122,-1.76736 C58.5587,-12.0181 55.7309,-21.5618 50.9001,-29.8096 L39.9424,-23.447 C43.595,-17.0845 45.8337,-9.66159 46.1871,-1.76736 Z M22.0331,-40.5316 L28.3957,-51.4892 C20.148,-56.0844 10.6042,-58.6765 0.589122,-58.7943 L0.589122,-46.0693 C8.36553,-46.0693 15.6706,-44.0663 22.0331,-40.5316 Z M39.1177,-24.5075 L50.1932,-30.87 C45.0089,-39.2355 37.9394,-46.1871 29.4561,-51.0179 L23.0936,-40.0603 C29.6917,-36.1721 35.1116,-30.87 39.1177,-24.5075 Z M-46.1871,0 C-46.1871,-0.235649 -46.1871,-0.353473 -46.1871,-0.589122 L-58.9122,-0.589122 C-58.9122,-0.353473 -58.9122,-0.235649 -58.9122,0 C-58.9122,10.1329 -56.32,19.6767 -51.8427,28.0422 L-40.7672,21.6797 C-44.1841,15.1993 -46.1871,7.89423 -46.1871,0 Z M24.154,39.3533 L30.5165,50.4288 C39.1177,45.2445 46.305,37.8216 51.2536,29.1026 L40.2959,22.7401 C36.2899,29.5739 30.7521,35.3473 24.154,39.3533 Z M-40.1781,22.7401 L-51.1358,29.1026 C-46.1871,37.8216 -38.9998,45.2445 -30.3987,50.4288 L-24.0362,39.3533 C-30.7521,35.3473 -36.2899,29.5739 -40.1781,22.7401 Z M58.9122,-0.589122 L46.1871,-0.589122 C46.1871,-0.353473 46.1871,-0.235649 46.1871,0 C46.1871,7.89423 44.1841,15.1993 40.7672,21.6797 L51.8427,28.0422 C56.32,19.6767 58.9122,10.1329 58.9122,2.67901e-13 C58.9122,-0.235649 58.9122,-0.353473 58.9122,-0.589122 Z M0.589122,46.1871 L0.589122,58.9122 C11.0755,58.7943 20.9727,55.9665 29.4561,51.0179 L23.0936,40.0603 C16.4954,43.8306 8.83682,46.0693 0.589122,46.1871 Z M-23.0936,39.9424 L-29.4561,50.9001 C-20.9727,55.8487 -11.0755,58.6765 -0.589122,58.7943 L-0.589122,46.0693 C-8.83682,46.0693 -16.4954,43.8306 -23.0936,39.9424 Z " fill="#015e6c" fill-opacity="1.00" />		</g>	</svg>