<?xml version="1.0" encoding="utf-8" ?>	<!-- Generator: Assembly 2.4 - http://assemblyapp.co -->	<svg version="1.1" xmlns="http://www.w3.org/2000/svg" xmlns:xlink="http://www.w3.org/1999/xlink" width="900.00" height="600.00" viewBox="0 0 900.0 600.0">		<rect x="0" y="0" width="900.00" height="600.00" fill="#ffffff" />		<g id="document" transform="scale(3.0029921885343573 3.0029921885343573) translate(149.77432147643904 100.0)">			<path d="M-49.7363,26.5163 C-61.6363,14.5163 -80.9363,14.5163 -92.9363,26.5163 L-115.036,48.5163 L-92.9363,70.6163 C-81.0363,82.5163 -61.6363,82.5163 -49.7363,70.6163 L-27.6363,48.5163 L-49.7363,26.5163 Z M-71.2363,71.0163 C-83.6363,71.0163 -93.7363,60.9163 -93.7363,48.5163 C-93.7363,36.1163 -83.6363,26.1163 -71.2363,26.1163 C-58.8363,26.1163 -48.8363,36.2163 -48.8363,48.5163 C-48.8363,60.8163 -58.8363,71.0163 -71.2363,71.0163 Z M-59.3363,48.5163 C-59.3363,41.9441 -64.6641,36.6163 -71.2363,36.6163 C-77.8085,36.6163 -83.1363,41.9441 -83.1363,48.5163 C-83.1363,55.0885 -77.8085,60.4163 -71.2363,60.4163 C-64.6641,60.4163 -59.3363,55.0885 -59.3363,48.5163 Z " fill="#008c9f" fill-opacity="1.00" />			<path d="M4.82442e-06,4.82442e-06 L4.82442e-06,-274.438 L-274.438,-274.438 L-274.438,4.82442e-06 L4.82442e-06,4.82442e-06 Z " fill="#015e6c" fill-opacity="1.00" />			<path d="M301.573,301.573 L301.573,-5.30142e-06 L-5.30142e-06,-5.10273e-06 L-5.10273e-06,301.573 L301.573,301.573 Z " fill="#023649" fill-opacity="1.00" />			<path d="M-71.3363,-71.3363 C-95.4711,-71.3363 -115.036,-62.0496 -115.036,-50.5939 C-115.036,-39.1382 -95.4711,-29.8515 -71.3363,-29.8515 C-47.2014,-29.8515 -27.6363,-39.1382 -27.6363,-50.5939 C-27.6363,-62.0496 -47.2014,-71.3363 -71.3363,-71.3363 Z " fill="#527779" fill-opacity="1.00" />		</g>	</svg>