<?xml version="1.0" encoding="utf-8" ?>	<!-- Generator: Assembly 2.4 - http://assemblyapp.co -->	<svg version="1.1" xmlns="http://www.w3.org/2000/svg" xmlns:xlink="http://www.w3.org/1999/xlink" width="900.00" height="600.00" viewBox="0 0 900.0 600.0">		<rect x="0" y="0" width="900.00" height="600.00" fill="#ffffff" />		<g id="document" transform="scale(3.0029921885343573 3.0029921885343573) translate(149.77432147643904 100.0)">			<path d="M0.307872,-100 C-26.3376,-100 -48.0594,-78.3747 -48.0594,-51.6328 L-48.0594,-6.93408 C-41.3015,-7.12716 -41.9773,-11.375 -41.9773,-18.326 L-41.9773,-51.8258 C-41.9773,-62.0592 -36.8606,-67.1759 -26.6272,-67.1759 C-16.3938,-67.1759 -12.6287,-58.101 0.114789,-58.101 C12.9548,-58.101 16.6234,-67.1759 26.8568,-67.1759 C37.0901,-67.1759 42.2068,-62.0592 42.2068,-51.8258 L42.2068,-18.326 C42.2068,-11.375 41.5311,-7.12716 48.289,-6.93408 L48.289,-51.6328 C48.7717,-78.3747 27.1464,-100 0.307872,-100 Z " fill="#d87216" fill-opacity="1.00" />			<path d="M150.238,100 L0.118753,-50.1188 L-150,100 L150.238,100 Z " fill="#f4dd4c" fill-opacity="1.00" />		</g>	</svg>