<?xml version="1.0" encoding="utf-8" ?>	<!-- Generator: Assembly 2.4 - http://assemblyapp.co -->	<svg version="1.1" xmlns="http://www.w3.org/2000/svg" xmlns:xlink="http://www.w3.org/1999/xlink" width="900.00" height="600.00" viewBox="0 0 900.0 600.0">		<rect x="0" y="0" width="900.00" height="600.00" fill="#ffffff" />		<g id="document" transform="scale(3.0029921885343573 3.0029921885343573) translate(149.77432147643904 100.0)">			<path d="M50.6646,-24.269 L-50.5395,-24.269 C-53.2916,-18.5145 -55.1681,-12.1345 -55.7936,-5.5043 L55.7936,-5.5043 C55.1681,-12.2596 53.4167,-18.5145 50.6646,-24.269 Z M-55.5434,7.25567 C-54.7928,13.2604 -53.0414,19.0149 -50.5395,24.269 L50.6646,24.269 C53.2916,19.0149 54.9179,13.2604 55.6685,7.25567 C55.6685,7.25567 -55.5434,7.25567 -55.5434,7.25567 Z M-7.03024e-14,-56.0438 C-16.638,-56.0438 -31.6497,-48.663 -42.0328,-37.0289 L42.0328,-37.0289 C31.7748,-48.663 16.7631,-56.0438 -7.03024e-14,-56.0438 Z M-7.03024e-14,56.0438 C16.7631,56.0438 31.7748,48.663 42.0328,37.0289 L-42.0328,37.0289 C-31.6497,48.663 -16.638,56.0438 -7.03024e-14,56.0438 Z " fill="#c14d1e" fill-opacity="1.00" />		</g>	</svg>