<?xml version="1.0" encoding="utf-8" ?>	<!-- Generator: Assembly 2.4 - http://assemblyapp.co -->	<svg version="1.1" xmlns="http://www.w3.org/2000/svg" xmlns:xlink="http://www.w3.org/1999/xlink" width="900.00" height="600.00" viewBox="0 0 900.0 600.0">		<rect x="0" y="0" width="900.00" height="600.00" fill="#ffffff" />		<g id="document" transform="scale(3.0029921885343573 3.0029921885343573) translate(149.77432147643904 100.0)">			<path d="M108.56,-109.153 L65.1357,-109.153 L65.1357,107.966 L108.56,107.966 L108.56,-109.153 Z M21.7119,-109.153 L-21.7119,-109.153 L-21.7119,107.966 L21.7119,107.966 L21.7119,-109.153 Z M-65.1357,-109.153 L-108.56,-109.153 L-108.56,107.966 L-65.1357,107.966 L-65.1357,-109.153 Z " fill="#9c9c9c" fill-opacity="1.00" />			<path d="M-1.05555,44.6126 C23.961,44.6126 44.1772,24.3963 44.1772,-0.620199 L44.1772,-46.5915 L-1.79405,-46.5915 C-26.8106,-46.5915 -47.0268,-26.3752 -47.0268,-1.35869 L-47.0268,44.6126 L-1.05555,44.6126 Z " fill="#e8ddcb" fill-opacity="1.00" />		</g>	</svg>