<?xml version="1.0" encoding="utf-8" ?>	<!-- Generator: Assembly 2.4 - http://assemblyapp.co -->	<svg version="1.1" xmlns="http://www.w3.org/2000/svg" xmlns:xlink="http://www.w3.org/1999/xlink" width="900.00" height="600.00" viewBox="0 0 900.0 600.0">		<rect x="0" y="0" width="900.00" height="600.00" fill="#ffffff" />		<g id="document" transform="scale(3.0029921885343573 3.0029921885343573) translate(149.77432147643904 100.0)">			<path d="M0.613185,-99.4238 L-149.924,0.30659 L0.613185,99.7981 L149.924,0.30659 L0.613185,-99.4238 Z " fill="#9c9c9c" fill-opacity="1.00" />			<path d="M49.5922,-7.38917 C49.0442,-34.9252 30.5499,-50.6796 9.86365,-54.3785 C9.31567,-54.5155 9.17867,-53.9675 9.45266,-53.6935 C20.2753,-44.2409 27.399,-31.2263 27.399,-14.1019 C27.399,-12.458 27.262,-10.6771 27.125,-8.89612 C27.125,-8.34814 27.536,-8.21114 27.947,-8.34814 C33.8378,-11.362 39.8656,-11.362 45.7564,-8.48513 L5.20581,45.2169 C5.20581,45.2169 23.5632,-8.21114 23.5632,-8.34814 C23.7002,-10.2661 23.8371,-12.184 23.8371,-14.1019 C23.8371,-30.1304 17.1244,-42.3229 6.98675,-51.0906 C5.6168,-52.3236 4.10985,-53.4195 2.60291,-54.5155 C2.19192,-54.7895 1.78094,-54.6525 1.78094,-54.1045 L1.78094,-8.48513 C1.78094,-7.93715 2.32892,-7.80016 2.7399,-7.93715 C8.90468,-10.2661 13.9735,-11.499 19.7273,-9.03312 L-0.136995,49.6008 L-19.4533,-9.30711 C-13.8365,-11.636 -8.4937,-11.088 -2.8769,-8.07415 C-2.46591,-7.80016 -1.91793,-8.07415 -1.91793,-8.62213 L-1.91793,-54.2415 C-1.91793,-54.6525 -2.32892,-54.7895 -2.7399,-54.6525 C-4.24685,-53.5565 -5.75379,-52.4606 -7.12375,-51.2276 C-17.2614,-42.3229 -23.8371,-30.1304 -23.8371,-14.1019 C-23.8371,-12.184 -23.5632,-9.99208 -23.4262,-8.07415 C-23.4262,-7.93715 -23.4262,-7.80016 -23.2892,-7.80016 L-5.34281,45.2169 L-46.0304,-8.48513 C-40.0026,-11.499 -34.1118,-11.362 -28.084,-8.34814 C-27.673,-8.21114 -27.262,-8.34814 -27.262,-8.89612 C-27.399,-10.6771 -27.536,-12.321 -27.536,-14.1019 C-27.536,-31.2263 -20.4123,-44.2409 -9.58966,-53.6935 C-9.31567,-53.9675 -9.45266,-54.5155 -10.0006,-54.3785 C-30.8239,-50.6796 -49.0442,-35.0622 -49.5922,-7.52617 C-49.5922,-7.38917 -49.5922,-7.38917 -49.5922,-7.38917 C-49.5922,-7.38917 -49.5922,-7.38917 -49.5922,-7.38917 L-49.5922,-7.25218 C-49.5922,-7.11518 -49.4552,-6.97819 -49.3182,-6.97819 L-4.38384,52.3407 C-2.05493,55.4916 1.78094,55.4916 4.24685,52.3407 L49.4552,-6.97819 C49.4552,-6.97819 49.4552,-6.97819 49.4552,-6.97819 C49.4552,-6.97819 49.5922,-7.11518 49.5922,-7.38917 Z " fill="#e8ddcb" fill-opacity="1.00" />		</g>	</svg>