<?xml version="1.0" encoding="utf-8" ?>	<!-- Generator: Assembly 2.4 - http://assemblyapp.co -->	<svg version="1.1" xmlns="http://www.w3.org/2000/svg" xmlns:xlink="http://www.w3.org/1999/xlink" width="900.00" height="600.00" viewBox="0 0 900.0 600.0">		<rect x="0" y="0" width="900.00" height="600.00" fill="#ffffff" />		<g id="document" transform="scale(3.0029921885343573 3.0029921885343573) translate(149.77432147643904 100.0)">			<path d="M19.9668,100.18 L19.9668,-100.18 L-19.9668,-100.18 L-19.9668,100.18 L19.9668,100.18 Z " fill="#469990" fill-opacity="1.00" />			<path d="M149.765,-20.0823 L-150,-20.0823 L-150,19.8514 L149.765,19.8514 L149.765,-20.0823 Z " fill="#469990" fill-opacity="1.00" />			<path d="M-64.4857,-61.3909 L-60.9923,-61.5814 L-61.1828,-64.5667 L-64.6762,-64.3762 C-64.8033,-65.0749 -64.9303,-65.8371 -65.0574,-66.5357 L-61.7545,-67.6155 L-62.6437,-70.4103 L-66.0101,-69.267 C-66.2642,-69.9022 -66.5818,-70.6008 -66.8993,-71.236 L-63.914,-73.1415 L-65.502,-75.6187 L-68.4873,-73.7132 C-68.9319,-74.2848 -69.3765,-74.8565 -69.8847,-75.4281 L-67.471,-77.9688 L-69.6941,-80.0014 L-72.1078,-77.4607 C-72.6794,-77.9053 -73.3146,-78.3499 -73.8862,-78.731 L-72.1713,-81.7799 L-74.7755,-83.2407 L-76.4904,-80.1919 C-77.1256,-80.5095 -77.8243,-80.7636 -78.523,-81.0177 L-77.6337,-84.3841 L-80.5555,-85.1463 L-81.4448,-81.7799 C-82.1435,-81.9069 -82.9057,-81.9704 -83.6043,-82.0339 L-83.6043,-85.5909 L-86.5897,-85.5909 L-86.5897,-82.0974 C-87.2883,-82.0339 -88.0505,-81.9704 -88.7492,-81.8434 L-89.6385,-85.2098 L-92.4967,-84.4476 L-91.6075,-81.0812 C-92.3062,-80.8271 -93.0049,-80.573 -93.6401,-80.2554 L-95.355,-83.3043 L-97.9592,-81.9069 L-96.2443,-78.8581 C-96.8794,-78.477 -97.4511,-78.0323 -98.0227,-77.5877 L-100.436,-80.1284 L-102.659,-78.0959 L-100.246,-75.5552 C-100.754,-75.047 -101.199,-74.4754 -101.643,-73.8402 L-104.629,-75.7457 L-106.216,-73.2686 L-103.231,-71.363 C-103.612,-70.7279 -103.866,-70.0927 -104.12,-69.394 L-107.423,-70.4738 L-108.313,-67.6791 L-105.01,-66.5993 C-105.137,-65.9006 -105.327,-65.1384 -105.391,-64.4397 L-108.884,-64.6302 L-109.075,-61.6449 L-105.581,-61.4544 C-105.581,-60.7557 -105.518,-59.9935 -105.454,-59.2313 L-108.884,-58.5961 L-108.313,-55.6743 L-104.883,-56.3095 C-104.692,-55.6108 -104.501,-54.9121 -104.247,-54.2134 L-107.423,-52.7525 L-106.153,-50.0213 L-102.977,-51.4822 C-102.596,-50.847 -102.215,-50.2119 -101.77,-49.6402 L-104.501,-47.4171 L-102.596,-45.1305 L-99.8647,-47.3536 C-99.3566,-46.8454 -98.8485,-46.3373 -98.2768,-45.8927 L-100.309,-43.0979 L-97.8957,-41.383 L-95.8632,-44.1777 C-95.228,-43.7966 -94.5928,-43.479 -93.9576,-43.0979 L-95.228,-39.8586 L-92.4967,-38.7788 L-91.2264,-42.0181 C-90.5277,-41.8276 -89.829,-41.637 -89.0668,-41.4465 L-89.5114,-37.953 L-86.5261,-37.5719 L-86.0815,-41.0654 C-85.7004,-41.0654 -85.3828,-41.0019 -85.0017,-41.0019 C-84.6206,-41.0019 -84.303,-41.0019 -83.9219,-41.0654 L-83.4773,-37.5719 L-80.492,-37.953 L-80.9366,-41.4465 C-80.2379,-41.5735 -79.4757,-41.7641 -78.777,-42.0181 L-77.5067,-38.7788 L-74.7755,-39.8586 L-76.0458,-43.0979 C-75.4106,-43.4155 -74.7755,-43.7331 -74.1403,-44.1777 L-72.1078,-41.383 L-69.6941,-43.0979 L-71.7266,-45.8927 C-71.155,-46.3373 -70.6469,-46.8454 -70.1387,-47.3536 L-67.4075,-45.1305 L-65.502,-47.4171 L-68.2332,-49.6402 C-67.8521,-50.2754 -67.4075,-50.847 -67.0264,-51.4822 L-63.8505,-50.0213 L-62.5802,-52.7525 L-65.756,-54.2134 C-65.502,-54.8486 -65.2479,-55.6108 -65.1209,-56.3095 L-61.6909,-55.6743 L-61.1193,-58.5961 L-64.5492,-59.2313 C-64.5492,-59.8665 -64.4857,-60.6922 -64.4857,-61.3909 Z " fill="#51bad2" fill-opacity="1.00" />			<path d="M86.431,33.5672 C72.3302,33.5672 60.8971,45.0003 60.8971,59.1011 C60.8971,73.2019 72.3302,84.635 86.431,84.635 C100.532,84.635 111.965,73.2019 111.965,59.1011 C111.965,45.0003 100.532,33.5672 86.431,33.5672 Z M86.431,35.7268 C89.4163,35.7268 92.2745,36.2985 94.9423,37.3147 C94.8152,44.4286 91.0677,50.2087 86.431,50.2087 C81.7942,50.2087 78.0467,44.4286 77.9197,37.2512 C80.5874,36.2349 83.3821,35.7268 86.431,35.7268 Z M62.9931,59.1011 C62.9931,53.5116 64.9622,48.3032 68.3286,44.3016 C75.1249,46.5882 79.4441,51.9872 77.9832,56.3699 C76.5223,60.7525 69.9165,62.531 63.0567,60.435 C62.9931,59.9903 62.9931,59.5457 62.9931,59.1011 Z M80.4604,81.7132 C74.7438,80.1888 69.853,76.6318 66.7407,71.741 C71.0598,66.0245 77.475,63.5473 81.2226,66.2785 C84.9701,69.0098 84.589,75.8696 80.4604,81.7132 Z M86.431,62.9121 C84.2714,62.9121 82.6199,61.1972 82.6199,59.1011 C82.6199,56.9415 84.3349,55.2901 86.431,55.2901 C88.5905,55.2901 90.242,57.005 90.242,59.1011 C90.242,61.2607 88.5905,62.9121 86.431,62.9121 Z M92.4016,81.7132 C88.273,75.8696 87.8919,69.0098 91.6394,66.2785 C95.3869,63.5473 101.802,66.0245 106.121,71.741 C102.945,76.5683 98.1181,80.1888 92.4016,81.7132 Z M94.8787,56.3699 C93.4178,51.9872 97.8005,46.5882 104.533,44.3016 C107.836,48.3667 109.869,53.5116 109.869,59.1011 C109.869,59.5457 109.869,59.9903 109.805,60.435 C102.945,62.5945 96.2761,60.8161 94.8787,56.3699 Z " fill="#51bad2" fill-opacity="1.00" />		</g>	</svg>