<?xml version="1.0" encoding="utf-8" ?>	<!-- Generator: Assembly 2.4 - http://assemblyapp.co -->	<svg version="1.1" xmlns="http://www.w3.org/2000/svg" xmlns:xlink="http://www.w3.org/1999/xlink" width="900.00" height="600.00" viewBox="0 0 900.0 600.0">		<rect x="0" y="0" width="900.00" height="600.00" fill="#ffffff" />		<g id="document" transform="scale(3.0029921885343573 3.0029921885343573) translate(149.77432147643904 100.0)">			<path d="M149.832,99.9383 L-150,-99.9383 L-150,99.9383 L149.832,99.9383 Z " fill="#509547" fill-opacity="1.00" />			<path d="M-27.556,-9.72565 C-23.5282,-21.1214 -12.8202,-29.177 -0.0491201,-29.177 C12.6237,-29.177 23.43,-21.1214 27.4578,-9.72565 L47.5968,-9.72565 C43.176,-31.8294 23.5282,-48.53 0.0491187,-48.53 C-23.43,-48.53 -43.0778,-31.8294 -47.4985,-9.72565 L-27.556,-9.72565 Z M27.4578,9.72565 C23.43,21.1214 12.7219,29.177 -0.0491201,29.177 C-12.7219,29.177 -23.5282,21.1214 -27.556,9.72565 L-47.5968,9.72565 C-43.176,31.8294 -23.5282,48.53 -0.0491201,48.53 C23.43,48.53 43.0778,31.8294 47.4985,9.72565 L27.4578,9.72565 Z " fill="#00b4ce" fill-opacity="1.00" />		</g>	</svg>