<?xml version="1.0" encoding="utf-8" ?>	<!-- Generator: Assembly 2.4 - http://assemblyapp.co -->	<svg version="1.1" xmlns="http://www.w3.org/2000/svg" xmlns:xlink="http://www.w3.org/1999/xlink" width="900.00" height="600.00" viewBox="0 0 900.0 600.0">		<rect x="0" y="0" width="900.00" height="600.00" fill="#ffffff" />		<g id="document" transform="scale(3.0029921885343573 3.0029921885343573) translate(149.77432147643904 100.0)">			<path d="M163.713,0.318 L-163.077,0.317986 L-163.077,196.467 L163.713,196.467 L163.713,0.318 Z " fill="#f57180" fill-opacity="1.00" />			<path d="M-23.5612,-13.8051 C-19.7057,-20.3968 -22.0687,-28.7296 -28.6603,-32.5851 C-35.252,-36.4406 -43.7092,-34.2019 -47.5647,-27.6103 C-51.4201,-21.0186 -49.0571,-12.5614 -42.4655,-8.70594 C-35.7495,-4.97482 -27.2923,-7.21349 -23.5612,-13.8051 Z M-23.5612,13.8051 C-27.4166,7.21349 -35.8738,4.97482 -42.4655,8.70594 C-49.0571,12.5614 -51.2958,21.0186 -47.5647,27.6103 C-43.8335,34.2019 -35.252,36.4406 -28.6603,32.5851 C-21.9443,28.7296 -19.7057,20.3968 -23.5612,13.8051 Z M0.317986,27.6103 C-7.26862,27.6103 -13.4871,33.8288 -13.4871,41.4154 C-13.4871,49.002 -7.26862,55.2205 0.317986,55.2205 C7.90459,55.2205 14.1231,49.002 14.1231,41.4154 C14.1231,33.8288 7.90459,27.6103 0.317986,27.6103 Z M24.1971,13.8051 C20.3416,20.3968 22.7047,28.854 29.2963,32.7094 C35.888,36.5649 44.3452,34.2019 48.2006,27.6103 C52.0561,21.0186 49.6931,12.5614 43.1014,8.70594 C36.3854,4.97482 27.9282,7.21349 24.1971,13.8051 Z M24.1971,-13.8051 C28.0526,-7.21349 36.5098,-4.97482 43.1014,-8.70594 C49.6931,-12.5614 51.9318,-21.0186 48.2006,-27.6103 C44.3452,-34.2019 35.888,-36.4406 29.2963,-32.5851 C22.5803,-28.7296 20.3416,-20.3968 24.1971,-13.8051 Z M0.317986,-27.6103 C7.90459,-27.6103 14.1231,-33.8288 14.1231,-41.4154 C14.1231,-49.002 7.90459,-55.2205 0.317986,-55.2205 C-7.26862,-55.2205 -13.4871,-49.002 -13.4871,-41.4154 C-13.4871,-33.8288 -7.26862,-27.6103 0.317986,-27.6103 Z " fill="#00b4ce" fill-opacity="1.00" />		</g>	</svg>