<?xml version="1.0" encoding="utf-8" ?>	<!-- Generator: Assembly 2.4 - http://assemblyapp.co -->	<svg version="1.1" xmlns="http://www.w3.org/2000/svg" xmlns:xlink="http://www.w3.org/1999/xlink" width="4096.00" height="2731.00" viewBox="0 0 4096.0 2731.0">		<rect x="0" y="0" width="4096.00" height="2731.00" fill="#ffffff" />		<g id="document" transform="scale(13.653333333333334 13.653333333333334) translate(150.0 100.0)">			<path d="M174.759,91.1147 L-153.269,-123.993 L-174.829,-91.1147 L153.199,123.993 L174.759,91.1147 Z " fill="#469990" fill-opacity="1.00" />			<path d="M-165.058,134.703 L188.509,-99.2652 L165.058,-134.703 L-188.509,99.2652 L-165.058,134.703 Z " fill="#469990" fill-opacity="1.00" />			<path d="M44.9179,-4.59021e-14 C44.9179,-24.8075 24.8075,-44.9179 -4.59021e-14,-44.9179 C-24.8075,-44.9179 -44.9179,-24.8075 -44.9179,-4.59021e-14 C-44.9179,24.8075 -24.8075,44.9179 -4.59021e-14,44.9179 C24.8075,44.9179 44.9179,24.8075 44.9179,-4.59021e-14 Z " fill="#ffcc1a" fill-opacity="1.00" />		</g>	</svg>